:SAMPLES-PER-SECOND 24
:FULLY-SPECIFIED
:DEGREES
319
root  -4.00192 39.7218 27.049 3.03424 -43.0191 2.72833
RightUpLeg  -4.54176 -19.1534 -5.61881
RightLeg  24.3857 -20.3455 -9.97572
RightFoot  -12.8538 -0.00950481 5.65303
RightToes  -2.08645e-008 3.77894e-005 6.81332e-007
Spine  4.21788 1.6569 -0.392706
Spine1  7.75412 2.7444 -4.31333
HEad  -38.3904 27.6103 -17.5439
LeftShoulder1  5.87442 -11.4702 -33.2148
LeftArm  -0.625752 26.6314 -30.1691
LeftForeArm  95.2362 -80.1249 -90.3796
LeftHand  -0.590127 -1.45436 10.1602
RightShoulder  3.31079 5.89424 29.3038
RightArm  8.65121 -16.3449 33.0045
RightForeArm  129.905 79.7057 114.361
RightHand  -0.373667 7.482 -3.72465
LeftUpLeg  -12.9026 1.55781 3.19185
LeftLeg  8.31867 9.90662 1.47755
LeftFoot  -2.75476 0.810015 -10.5614
LeftToes  1.24767e-006 1.47042e-008 1.32732e-009
320
root  -4.02396 39.4707 26.4578 0.120117 -47.0525 4.79987
RightUpLeg  -3.2513 -17.8079 -6.37412
RightLeg  22.0985 -19.7551 -8.77502
RightFoot  -15.5314 0.119058 6.22155
RightToes  -2.08645e-008 3.77894e-005 6.81332e-007
Spine  4.38749 2.69639 -0.290715
Spine1  9.83321 4.35547 -5.69148
HEad  -39.3544 27.5708 -18.489
LeftShoulder1  6.92207 -12.6813 -36.7029
LeftArm  8.28325 18.1906 -23.4996
LeftForeArm  81.8287 -79.88 -74.3144
LeftHand  -0.724055 -1.65287 12.0967
RightShoulder  3.5198 6.12817 30.6408
RightArm  6.33612 -14.3595 34.455
RightForeArm  93.9198 80.3628 78.0337
RightHand  -0.590094 7.75388 -5.55882
LeftUpLeg  -12.7794 3.03645 2.89009
LeftLeg  10.8974 11.8608 2.08646
LeftFoot  -1.46169 0.790944 -9.03941
LeftToes  1.24767e-006 1.47042e-008 1.32732e-009
321
root  -3.90761 39.3386 25.8389 -0.677551 -50.2559 4.4415
RightUpLeg  -3.71573 -14.6469 -5.43316
RightLeg  22.7021 -19.4339 -8.88385
RightFoot  -16.8834 0.105179 4.54468
RightToes  -2.08645e-008 3.77894e-005 6.81332e-007
Spine  5.75383 2.62598 1.8551
Spine1  10.595 4.76473 -7.0022
HEad  -40.9589 28.4084 -20.6502
LeftShoulder1  7.37788 -13.1928 -38.0813
LeftArm  12.3648 12.7804 -21.5819
LeftForeArm  83.8384 -79.936 -68.6142
LeftHand  -0.745585 -1.91502 12.0295
RightShoulder  3.65825 6.32036 31.3464
RightArm  6.33276 -12.0337 35.7525
RightForeArm  69.6016 78.3902 53.2284
RightHand  -0.803499 7.58156 -7.53109
LeftUpLeg  -13.0558 4.15243 3.9411
LeftLeg  13.0638 13.4107 3.28322
LeftFoot  -0.629603 0.818104 -8.67645
LeftToes  1.24767e-006 1.47042e-008 1.32732e-009
322
root  -3.85088 39.3733 25.3519 1.33008 -52.6083 2.34412
RightUpLeg  -5.17431 -14.4257 -3.30884
RightLeg  22.6634 -17.4559 -8.03153
RightFoot  -16.2025 0.0357879 3.42839
RightToes  -2.08645e-008 3.77894e-005 6.81332e-007
Spine  5.34193 1.78284 3.03736
Spine1  10.8634 3.50401 -5.6852
HEad  -41.7338 30.5844 -23.0978
LeftShoulder1  7.21817 -13.0541 -37.5057
LeftArm  11.6507 13.3993 -24.5675
LeftForeArm  104.832 -80.8036 -84.3289
LeftHand  -0.679082 -2.10025 10.7168
RightShoulder  3.61352 6.3265 30.8616
RightArm  9.58616 -11.8086 36.1134
RightForeArm  76.2017 79.2492 60.4065
RightHand  -0.638462 8.08506 -5.85866
LeftUpLeg  -13.8168 4.61772 5.99428
LeftLeg  13.4734 15.0491 4.12603
LeftFoot  0.332524 0.933111 -9.1356
LeftToes  1.24767e-006 1.47042e-008 1.32732e-009
323
root  -3.9841 39.5432 24.9893 2.8493 -55.0929 1.04553
RightUpLeg  -4.95115 -14.5126 -1.90936
RightLeg  19.7124 -15.4625 -6.17516
RightFoot  -15.2694 -0.0173581 2.49843
RightToes  -2.08645e-008 3.77894e-005 6.81332e-007
Spine  4.33208 1.10524 1.8149
Spine1  10.4093 1.79217 -2.32245
HEad  -40.1283 33.75 -23.3644
LeftShoulder1  6.89952 -12.7282 -36.4518
LeftArm  10.1725 16.8605 -28.5192
LeftForeArm  138.68 -79.1825 -121.1
LeftHand  -0.644788 -1.67625 10.7753
RightShoulder  3.53015 6.23453 30.3456
RightArm  13.6055 -14.0574 35.8534
RightForeArm  109.623 80.5317 95.0191
RightHand  -0.428825 8.68105 -3.92331
LeftUpLeg  -12.7683 5.61011 7.67065
LeftLeg  11.0413 16.7744 3.60082
LeftFoot  2.09855 1.09012 -9.34782
LeftToes  1.24767e-006 1.47042e-008 1.32732e-009
324
root  -4.18828 39.7363 24.685 3.52386 -58.2869 0.663971
RightUpLeg  -3.98369 -10.5435 -1.12699
RightLeg  16.1313 -16.5741 -4.82726
RightFoot  -14.2468 -0.0704864 0.999713
RightToes  -2.08645e-008 3.77894e-005 6.81332e-007
Spine  2.87965 0.700293 1.0268
Spine1  10.462 0.947569 -0.816909
HEad  -37.3701 37.0443 -21.7216
LeftShoulder1  6.70777 -12.506 -35.8615
LeftArm  9.52956 18.9721 -30.4876
LeftForeArm  159.438 -73.5179 -145.751
LeftHand  -0.659925 -0.971795 12.1749
RightShoulder  3.5696 6.2403 30.7342
RightArm  16.564 -17.1636 35.4415
RightForeArm  141.035 78.2557 126.917
RightHand  -0.276371 9.476 -2.54614
LeftUpLeg  -10.9887 7.22002 9.09618
LeftLeg  8.29547 18.6567 2.2366
LeftFoot  3.97854 1.28149 -9.68859
LeftToes  1.24767e-006 1.47042e-008 1.32732e-009
325
root  -4.29659 39.845 24.3972 3.02612 -61.2507 1.29059
RightUpLeg  -3.71359 -6.76565 -0.79343
RightLeg  14.6025 -17.6391 -4.57222
RightFoot  -13.5537 -0.0872611 0.235821
RightToes  -2.08645e-008 3.77894e-005 6.81332e-007
Spine  2.39266 0.394301 0.953784
Spine1  10.7699 0.649764 -0.92292
HEad  -35.9521 39.5808 -21.0998
LeftShoulder1  6.73222 -12.4715 -36.099
LeftArm  8.18173 18.3463 -31.0323
LeftForeArm  172.009 -67.4514 -156.703
LeftHand  -0.669194 -0.860116 12.5551
RightShoulder  3.66632 6.32936 31.3942
RightArm  17.9312 -19.4922 35.6167
RightForeArm  153.967 75.3461 140.49
RightHand  -0.471479 9.91683 -3.96427
LeftUpLeg  -10.3339 8.93094 9.84318
LeftLeg  8.24973 20.1867 1.66147
LeftFoot  5.47122 1.49046 -10.2886
LeftToes  1.24767e-006 1.47042e-008 1.32732e-009
